<svg xmlns="http://www.w3.org/2000/svg" viewBox="0 0 36 36">
<path fill="#4285f4" fill-rule="evenodd" d="M29.18,27.7a1.66,1.66,0,1,1,1.22-.47A1.65,1.65,0,0,1,29.18,27.7Zm0,1.47a3.12,3.12,0,1,0-2.2-.91,3.12,3.12,0,0,0,2.2.91Z"/>
<path fill="#4285f4" d="M29.19,6.49a3.11,3.11,0,1,0,0,6.22h0a3.12,3.12,0,1,0,0-6.23Zm1.21,4.29a1.65,1.65,0,0,1-1.22.47,1.66,1.66,0,1,1,1.22-.47Z"/>
<path fill="#4285f4" d="M23.85,15h-.07v1.43h.09a1.67,1.67,0,1,1,0,3.33h-.1v1.46h.09v0a3.12,3.12,0,1,0,0-6.23Z"/>
<path fill="#4285f4" d="M17,3C9.64,3,3.69,6,3.69,9.61s6,6.6,13.3,6.6h.15V3Z"/>
<path fill="#4285f4" d="M17,18.77a21,21,0,0,1-9.41-1.86,6.67,6.67,0,0,1-3.67-3.58H3.69V18h0c0,3.65,6,6.61,13.3,6.61h.15V18.77Z"/>
<path fill="#4285f4" d="M17,27.16a21,21,0,0,1-9.41-1.87,6.69,6.69,0,0,1-3.67-3.57H3.69v4.67h0C3.69,30,9.64,33,17,33h.15V27.15Z"/>
<rect fill="#669df6" x="20.46" y="3" width="3.32" height="30"/>
</svg>