<svg xmlns="http://www.w3.org/2000/svg" viewBox="0 0 24 24">
<path fill="#fff" fill-rule="evenodd" d="M19.54,18.45a1.12,1.12,0,0,1-1.12-1.12,1.12,1.12,0,1,1,1.12,1.12Zm0,1a2.08,2.08,0,1,0-2.13-2,2.07,2.07,0,0,0,2.13,2Z"/>
<path fill="#fff" d="M19.24,4.31a2.08,2.08,0,1,0,.09,4.15h0a2.08,2.08,0,1,0-.09-4.15Zm.87,2.85a1.14,1.14,0,0,1-.81.33,1.12,1.12,0,1,1,0-2.23,1.12,1.12,0,0,1,1.11,1.12A1.14,1.14,0,0,1,20.11,7.16Z"/>
<path fill="#fff" d="M15.8,10.05h0l0,.95h.06a1.11,1.11,0,1,1,.05,2.22h-.07l0,1h.07a2.08,2.08,0,1,0-.11-4.15Z"/>
<path fill="#fff" d="M11.27,2C6.37,2,2.4,4,2.4,6.4s4,4.41,8.87,4.41h.1V2Z"/>
<path fill="#fff" d="M11.27,12.52A14,14,0,0,1,5,11.27,4.45,4.45,0,0,1,2.55,8.89H2.4V12h0c0,2.43,4,4.4,8.87,4.4h.1v-3.9Z"/>
<path fill="#fff" d="M11.27,18.1A14,14,0,0,1,5,16.86a4.45,4.45,0,0,1-2.44-2.38H2.4V17.6h0c0,2.43,4,4.4,8.87,4.4h.1V18.1Z"/>
<rect fill="#fff" opacity="0.5" x="13.58" y="2" width="2.22" height="20"/>
</svg>